<svg width="50" height="50" viewBox="0 0 50 50" fill="none" xmlns="http://www.w3.org/2000/svg">
<path d="M25 47.9167C24.4475 47.9167 23.9176 47.6972 23.5269 47.3065C23.1362 46.9158 22.9167 46.3859 22.9167 45.8333V39.5833H14.5833C13.4783 39.5833 12.4185 39.1444 11.6371 38.3629C10.8557 37.5815 10.4167 36.5217 10.4167 35.4167V14.5833C10.4167 12.2708 12.2917 10.4167 14.5833 10.4167H43.75C44.8551 10.4167 45.9149 10.8557 46.6963 11.6371C47.4777 12.4185 47.9167 13.4783 47.9167 14.5833V35.4167C47.9167 36.5217 47.4777 37.5815 46.6963 38.3629C45.9149 39.1444 44.8551 39.5833 43.75 39.5833H35.2083L27.5 47.3125C27.0833 47.7083 26.5625 47.9167 26.0417 47.9167H25ZM27.0833 35.4167V41.8333L33.5 35.4167H43.75V14.5833H14.5833V35.4167H27.0833ZM6.25001 31.25H2.08334V6.25001C2.08334 5.14494 2.52233 4.08513 3.30373 3.30373C4.08513 2.52233 5.14494 2.08334 6.25001 2.08334H39.5833V6.25001H6.25001V31.25Z" fill="black"/>
</svg>
