<svg width="50" height="50" viewBox="0 0 50 50" fill="none" xmlns="http://www.w3.org/2000/svg">
<path d="M45 15H5V10H45V15ZM40 0H10V5H40V0ZM50 25V45C50 46.3261 49.4732 47.5979 48.5355 48.5355C47.5979 49.4732 46.3261 50 45 50H5C3.67392 50 2.40215 49.4732 1.46447 48.5355C0.526784 47.5979 0 46.3261 0 45V25C0 23.6739 0.526784 22.4021 1.46447 21.4645C2.40215 20.5268 3.67392 20 5 20H45C46.3261 20 47.5979 20.5268 48.5355 21.4645C49.4732 22.4021 50 23.6739 50 25ZM35 35L20 26.825V43.15L35 35Z" fill="#F70B0B" fill-opacity="0.91"/>
</svg>
