<svg width="31" height="32" viewBox="0 0 31 32" fill="none" xmlns="http://www.w3.org/2000/svg">
<path d="M25.1875 4H5.8125C4.74245 4 3.875 4.89543 3.875 6V26C3.875 27.1046 4.74245 28 5.8125 28H25.1875C26.2576 28 27.125 27.1046 27.125 26V6C27.125 4.89543 26.2576 4 25.1875 4Z" stroke="black" stroke-width="2" stroke-linecap="round" stroke-linejoin="round"/>
<path d="M11.6252 15.3334C13.4086 15.3334 14.8543 13.841 14.8543 12C14.8543 10.1591 13.4086 8.66669 11.6252 8.66669C9.84176 8.66669 8.396 10.1591 8.396 12C8.396 13.841 9.84176 15.3334 11.6252 15.3334Z" stroke="black" stroke-width="2" stroke-linecap="round" stroke-linejoin="round"/>
<path d="M27.125 24L20.0208 17.3333L13.5625 23.3333L9.04167 19.3333L3.875 23.3333" stroke="black" stroke-width="2" stroke-linecap="round" stroke-linejoin="round"/>
</svg>
