<svg width="20" height="20" viewBox="0 0 20 20" fill="none" xmlns="http://www.w3.org/2000/svg">
<path d="M19.1559 17.5013L14.7458 13.0912C15.8075 11.6777 16.3807 9.95722 16.3788 8.18938C16.3788 3.67379 12.705 0 8.18938 0C3.67378 0 0 3.67379 0 8.18938C0 12.705 3.67378 16.3788 8.18938 16.3788C9.95722 16.3807 11.6777 15.8075 13.0912 14.7458L17.5013 19.1559C17.7246 19.3555 18.0157 19.462 18.3151 19.4536C18.6144 19.4452 18.8991 19.3226 19.1108 19.1109C19.3226 18.8991 19.4452 18.6144 19.4536 18.3151C19.462 18.0157 19.3554 17.7246 19.1559 17.5013ZM2.33982 8.18938C2.33982 7.03245 2.68289 5.9015 3.32565 4.93954C3.96841 3.97759 4.88198 3.22783 5.95085 2.78509C7.01972 2.34236 8.19587 2.22652 9.33057 2.45222C10.4653 2.67793 11.5076 3.23504 12.3256 4.05312C13.1437 4.8712 13.7008 5.91349 13.9265 7.04819C14.1522 8.18289 14.0364 9.35905 13.5937 10.4279C13.1509 11.4968 12.4012 12.4104 11.4392 13.0531C10.4773 13.6959 9.34631 14.0389 8.18938 14.0389C6.63855 14.0371 5.15178 13.4202 4.05517 12.3236C2.95857 11.227 2.34168 9.74021 2.33982 8.18938Z" fill="#3C444E"/>
</svg>
