<svg width="50" height="50" viewBox="0 0 50 50" fill="none" xmlns="http://www.w3.org/2000/svg">
<path d="M41.6667 16.6667H29.975L32.3146 9.65207C32.7354 8.38541 32.5229 6.98124 31.7417 5.89791C30.9604 4.81457 29.6938 4.16666 28.3583 4.16666H25C24.3813 4.16666 23.7958 4.44166 23.3979 4.91666L13.6063 16.6667H8.33334C6.03542 16.6667 4.16667 18.5354 4.16667 20.8333V39.5833C4.16667 41.8812 6.03542 43.75 8.33334 43.75H36.0563C36.9039 43.7472 37.7308 43.4872 38.4275 43.0043C39.1243 42.5215 39.6581 41.8385 39.9583 41.0458L45.7021 25.7312C45.7893 25.4973 45.8338 25.2496 45.8333 25V20.8333C45.8333 18.5354 43.9646 16.6667 41.6667 16.6667ZM8.33334 20.8333H12.5V39.5833H8.33334V20.8333ZM41.6667 24.6229L36.0563 39.5833H16.6667V19.5042L25.975 8.33332H28.3625L25.1083 18.0896C25.0027 18.4027 24.9732 18.7366 25.0224 19.0634C25.0715 19.3902 25.1979 19.7006 25.391 19.9688C25.584 20.2371 25.8383 20.4554 26.1326 20.6057C26.4269 20.7561 26.7528 20.8341 27.0833 20.8333H41.6667V24.6229Z" fill="#05B0F3"/>
</svg>
