<svg width="32" height="32" viewBox="0 0 32 32" fill="none" xmlns="http://www.w3.org/2000/svg">
<path d="M27.5153 23.3319C27.4115 23.2069 27.3097 23.0819 27.2097 22.9613C25.8347 21.2981 25.0028 20.2944 25.0028 15.5863C25.0028 13.1488 24.4197 11.1488 23.2703 9.64875C22.4228 8.54063 21.2772 7.7 19.7672 7.07875C19.7477 7.06794 19.7304 7.05376 19.7159 7.03688C19.1728 5.21812 17.6865 4 16.0103 4C14.334 4 12.8484 5.21812 12.3053 7.035C12.2908 7.05127 12.2737 7.065 12.2547 7.07563C8.7309 8.52625 7.0184 11.3094 7.0184 15.5844C7.0184 20.2944 6.18778 21.2981 4.81153 22.9594C4.71153 23.08 4.60965 23.2025 4.5059 23.33C4.2379 23.6532 4.0681 24.0464 4.0166 24.4631C3.96509 24.8798 4.03404 25.3025 4.21528 25.6813C4.6009 26.4938 5.42278 26.9981 6.3609 26.9981H25.6665C26.6003 26.9981 27.4165 26.4944 27.8034 25.6856C27.9854 25.3068 28.055 24.8837 28.004 24.4666C27.9529 24.0494 27.7833 23.6556 27.5153 23.3319Z" fill="#3C444E"/>
<path d="M15.9963 29.9962C16.8995 29.9954 17.7856 29.7503 18.5607 29.2867C19.3358 28.8231 19.9709 28.1584 20.3988 27.363C20.419 27.3249 20.4289 27.2823 20.4277 27.2391C20.4265 27.196 20.4142 27.154 20.3919 27.1171C20.3696 27.0801 20.3382 27.0496 20.3006 27.0284C20.2631 27.0072 20.2207 26.9961 20.1776 26.9962H11.8163C11.7731 26.996 11.7307 27.0071 11.693 27.0282C11.6554 27.0493 11.6238 27.0799 11.6015 27.1168C11.5792 27.1537 11.5668 27.1958 11.5655 27.239C11.5643 27.2821 11.5742 27.3249 11.5944 27.363C12.0223 28.1583 12.6573 28.823 13.4323 29.2865C14.2073 29.7501 15.0933 29.9953 15.9963 29.9962Z" fill="#3C444E"/>
</svg>
